(  ___  )|     /|(  ____ (  __   
| (   ) |(    / )| (    /| (    )
| (___) |  (_) / | (__    | |   ) |
|  ___  |  ) _ (  |  __)   | |   | |
| (   ) | / ( )  | (      | |   ) |
| )   ( |( /    )| (____/| (__/  )
|/     ||/     |(_______/(______/ 
  _    _    _    _    _    _    _    _  
 /   /   /   /   /   /   /   /  
( p )( r )( e )( s )( e )( n )( t )( s )
 _/  _/  _/  _/  _/  _/  _/  _/
 
Escape.From.Planet.Earth.2013.RETAIL.BDRiP.AC3-5.1.XviD-AXED

POSTER: 
[IMG]http://img9.imageshack.us/img9/8612/escapefromplanetearthbl.jpg[/IMG]

IMDB:  
http://www.imdb.com/title/tt0765446/

PLOT INFO:
Astronaut Scorch Supernova finds himself caught in a trap when he responds to an SOS from a notoriously dangerous alien planet.

Media Info:
General
Complete name                            : Escape.From.Planet.Earth.2013.RETAIL.BDRiP.AC3-5.1.XviD-AXED.avi
Format                                   : AVI
Format/Info                              : Audio Video Interleave
File size                                : 1.36 GiB
Duration                                 : 1h 29mn
Overall bit rate                         : 2 186 Kbps

Video
ID                                       : 0
Format                                   : MPEG-4 Visual
Format profile                           : Advanced Simple@L5
Format settings, BVOP                    : 2
Format settings, QPel                    : No
Format settings, GMC                     : No warppoints
Format settings, Matrix                  : Default (H.263)
Muxing mode                              : Packed bitstream
Codec ID                                 : XVID
Codec ID/Hint                            : XviD
Duration                                 : 1h 29mn
Bit rate                                 : 1 730 Kbps
Width                                    : 720 pixels
Height                                   : 304 pixels
Display aspect ratio                     : 2.35:1
Frame rate                               : 23.976 fps
Color space                              : YUV
Chroma subsampling                       : 4:2:0
Bit depth                                : 8 bits
Scan type                                : Progressive
Compression mode                         : Lossy
Bits/(Pixel*Frame)                       : 0.330
Stream size                              : 1.08 GiB (79%)
Writing library                          : XviD 64

Audio
ID                                       : 1
Format                                   : AC-3
Format/Info                              : Audio Coding 3
Mode extension                           : CM (complete main)
Format settings, Endianness              : Big
Codec ID                                 : 2000
Duration                                 : 1h 29mn
Bit rate mode                            : Constant
Bit rate                                 : 448 Kbps
Channel(s)                               : 6 channels
Channel positions                        : Front: L C R, Side: L R, LFE
Sampling rate                            : 48.0 KHz
Bit depth                                : 16 bits
Compression mode                         : Lossy
Stream size                              : 286 MiB (20%)
Alignment                                : Aligned on interleaves
Interleave, duration                     : 64 ms (1.54 video frames)
Interleave, preload duration             : 192 ms
Title                                    : escape



SOURCE: 
Retail RA/R1 BD/DVD Combo

NOTES: 
Enjoy a BDRiP from the Retail RA Blu-Ray and with retail audio as opposed to cam audio. Proof pic included below for all the haters.

SOURCE PROOF:
[IMG]http://img20.imageshack.us/img20/8797/aprf.jpg[/IMG]

AXED! We do this better.

SCREENS:
[IMG]http://imageshack.us/a/img843/2451/scrncp00006.png[/IMG]
[IMG]http://imageshack.us/a/img404/6869/scrncp00008.png[/IMG]
[IMG]http://imageshack.us/a/img805/527/scrncp00014t.png[/IMG]
[IMG]http://imageshack.us/a/img801/6504/scrncp00021.png[/IMG]
[IMG]http://imageshack.us/a/img823/8933/scrncp00022.png[/IMG]

